<svg width="1000" height="760" viewBox="0 0 1000 760" xmlns="http://www.w3.org/2000/svg">
  <defs>
    <linearGradient id="bgGrad2" x1="0%" y1="0%" x2="100%" y2="100%">
      <stop offset="0%" stop-color="#020202"/>
      <stop offset="60%" stop-color="#202024"/>
      <stop offset="100%" stop-color="#eeeef0"/>
    </linearGradient>
    <marker id="arrow" viewBox="0 0 10 10" refX="9" refY="5" markerWidth="7" markerHeight="7" orient="auto-start-reverse">
      <path d="M0,0 L10,5 L0,10 z" fill="#d6d6dc"/>
    </marker>
  </defs>
  <rect width="1000" height="760" fill="url(#bgGrad2)"/>
  <circle cx="238.0" cy="413.6" r="1.19" fill="#ffffff" opacity="0.57"/>
<circle cx="625.7" cy="49.8" r="0.62" fill="#ffffff" opacity="0.74"/>
<circle cx="259.4" cy="178.1" r="2.19" fill="#ffffff" opacity="0.48"/>
<circle cx="836.5" cy="362.0" r="1.62" fill="#ffffff" opacity="0.26"/>
<circle cx="634.9" cy="659.7" r="1.44" fill="#ffffff" opacity="0.67"/>
<circle cx="671.4" cy="48.7" r="1.81" fill="#ffffff" opacity="0.56"/>
<circle cx="301.3" cy="23.6" r="1.98" fill="#ffffff" opacity="0.48"/>
<circle cx="718.8" cy="667.9" r="1.74" fill="#ffffff" opacity="0.79"/>
<circle cx="395.0" cy="608.7" r="1.31" fill="#ffffff" opacity="0.8"/>
<circle cx="878.9" cy="74.1" r="0.82" fill="#ffffff" opacity="0.3"/>
<circle cx="965.5" cy="331.5" r="1.6" fill="#ffffff" opacity="0.36"/>
<circle cx="507.2" cy="293.3" r="1.16" fill="#ffffff" opacity="0.56"/>
<circle cx="584.3" cy="687.2" r="1.69" fill="#ffffff" opacity="0.8"/>
<circle cx="856.4" cy="753.2" r="1.67" fill="#ffffff" opacity="0.26"/>
<circle cx="860.6" cy="733.1" r="2.05" fill="#ffffff" opacity="0.55"/>
<circle cx="713.8" cy="160.5" r="1.93" fill="#ffffff" opacity="0.55"/>
<circle cx="285.0" cy="48.2" r="1.97" fill="#ffffff" opacity="0.84"/>
<circle cx="88.5" cy="608.5" r="1.26" fill="#ffffff" opacity="0.26"/>
<circle cx="293.9" cy="584.3" r="2.0" fill="#ffffff" opacity="0.18"/>
<circle cx="614.5" cy="34.2" r="1.75" fill="#ffffff" opacity="0.38"/>
<circle cx="880.9" cy="745.3" r="1.41" fill="#ffffff" opacity="0.85"/>
<circle cx="309.7" cy="58.5" r="1.56" fill="#ffffff" opacity="0.17"/>
<circle cx="197.4" cy="310.0" r="1.58" fill="#ffffff" opacity="0.26"/>
<circle cx="42.4" cy="659.5" r="1.1" fill="#ffffff" opacity="0.82"/>
<circle cx="896.7" cy="287.1" r="1.34" fill="#ffffff" opacity="0.51"/>
<circle cx="643.9" cy="452.7" r="1.49" fill="#ffffff" opacity="0.58"/>
<circle cx="940.6" cy="385.3" r="1.29" fill="#ffffff" opacity="0.65"/>
<circle cx="237.6" cy="228.8" r="2.16" fill="#ffffff" opacity="0.51"/>
<circle cx="548.4" cy="8.7" r="1.26" fill="#ffffff" opacity="0.56"/>
<circle cx="20.1" cy="468.0" r="1.61" fill="#ffffff" opacity="0.19"/>
<circle cx="627.3" cy="354.4" r="1.69" fill="#ffffff" opacity="0.4"/>
<circle cx="707.0" cy="560.9" r="0.64" fill="#ffffff" opacity="0.19"/>
<circle cx="676.0" cy="732.1" r="1.0" fill="#ffffff" opacity="0.47"/>
<circle cx="592.7" cy="243.2" r="1.18" fill="#ffffff" opacity="0.37"/>
<circle cx="369.2" cy="452.7" r="1.08" fill="#ffffff" opacity="0.41"/>
<circle cx="772.3" cy="20.5" r="1.51" fill="#ffffff" opacity="0.66"/>
<circle cx="310.0" cy="169.1" r="1.89" fill="#ffffff" opacity="0.32"/>
<circle cx="187.4" cy="330.8" r="1.72" fill="#ffffff" opacity="0.22"/>
<circle cx="322.0" cy="253.7" r="1.93" fill="#ffffff" opacity="0.46"/>
<circle cx="855.5" cy="128.7" r="1.14" fill="#ffffff" opacity="0.61"/>
<circle cx="884.9" cy="342.8" r="0.96" fill="#ffffff" opacity="0.23"/>
<circle cx="529.6" cy="145.0" r="1.89" fill="#ffffff" opacity="0.74"/>
<circle cx="183.6" cy="211.7" r="1.89" fill="#ffffff" opacity="0.6"/>
<circle cx="806.3" cy="262.4" r="0.81" fill="#ffffff" opacity="0.35"/>
<circle cx="793.9" cy="206.1" r="1.15" fill="#ffffff" opacity="0.44"/>
<circle cx="419.8" cy="311.2" r="2.07" fill="#ffffff" opacity="0.26"/>
<circle cx="4.7" cy="716.9" r="2.01" fill="#ffffff" opacity="0.84"/>
<circle cx="434.4" cy="722.1" r="2.08" fill="#ffffff" opacity="0.31"/>
<circle cx="745.5" cy="635.9" r="1.66" fill="#ffffff" opacity="0.51"/>
<circle cx="289.0" cy="259.2" r="0.96" fill="#ffffff" opacity="0.2"/>
<circle cx="588.7" cy="218.1" r="1.9" fill="#ffffff" opacity="0.18"/>
<circle cx="903.6" cy="527.2" r="2.08" fill="#ffffff" opacity="0.78"/>
<circle cx="899.7" cy="438.5" r="0.62" fill="#ffffff" opacity="0.67"/>
<circle cx="171.8" cy="227.9" r="1.66" fill="#ffffff" opacity="0.52"/>
<circle cx="413.8" cy="713.7" r="1.58" fill="#ffffff" opacity="0.39"/>
<circle cx="252.5" cy="654.9" r="1.36" fill="#ffffff" opacity="0.7"/>
<circle cx="351.8" cy="150.0" r="1.46" fill="#ffffff" opacity="0.72"/>
<circle cx="171.3" cy="601.7" r="2.07" fill="#ffffff" opacity="0.71"/>
<circle cx="823.5" cy="5.7" r="1.61" fill="#ffffff" opacity="0.75"/>
<circle cx="49.9" cy="206.3" r="1.03" fill="#ffffff" opacity="0.52"/>
<circle cx="423.0" cy="359.4" r="1.84" fill="#ffffff" opacity="0.15"/>
<circle cx="54.8" cy="96.4" r="0.8" fill="#ffffff" opacity="0.2"/>
<circle cx="974.7" cy="649.4" r="0.74" fill="#ffffff" opacity="0.5"/>
<circle cx="315.9" cy="239.1" r="1.16" fill="#ffffff" opacity="0.6"/>
<circle cx="586.6" cy="274.2" r="0.91" fill="#ffffff" opacity="0.38"/>
<circle cx="123.8" cy="422.2" r="1.75" fill="#ffffff" opacity="0.42"/>
<circle cx="79.9" cy="135.7" r="1.2" fill="#ffffff" opacity="0.57"/>
<circle cx="782.6" cy="289.0" r="1.88" fill="#ffffff" opacity="0.59"/>
<circle cx="431.6" cy="283.0" r="1.39" fill="#ffffff" opacity="0.64"/>
<circle cx="420.5" cy="527.5" r="1.34" fill="#ffffff" opacity="0.32"/>
<circle cx="535.8" cy="528.3" r="0.71" fill="#ffffff" opacity="0.45"/>
<circle cx="425.9" cy="668.5" r="2.1" fill="#ffffff" opacity="0.41"/>
<circle cx="897.9" cy="601.1" r="1.02" fill="#ffffff" opacity="0.47"/>
<circle cx="123.1" cy="618.0" r="1.66" fill="#ffffff" opacity="0.77"/>
<circle cx="792.5" cy="507.3" r="1.77" fill="#ffffff" opacity="0.54"/>
<circle cx="103.1" cy="446.7" r="0.61" fill="#ffffff" opacity="0.25"/>
<circle cx="774.3" cy="33.7" r="0.75" fill="#ffffff" opacity="0.22"/>
<circle cx="880.5" cy="136.2" r="0.64" fill="#ffffff" opacity="0.74"/>
<circle cx="121.3" cy="641.4" r="1.68" fill="#ffffff" opacity="0.74"/>
<circle cx="952.4" cy="440.1" r="1.88" fill="#ffffff" opacity="0.18"/>
<circle cx="767.4" cy="388.6" r="1.74" fill="#ffffff" opacity="0.22"/>
<circle cx="749.0" cy="710.3" r="0.7" fill="#ffffff" opacity="0.38"/>
<circle cx="564.0" cy="629.3" r="0.99" fill="#ffffff" opacity="0.28"/>
<circle cx="250.0" cy="468.1" r="1.81" fill="#ffffff" opacity="0.43"/>
<circle cx="367.5" cy="301.4" r="1.16" fill="#ffffff" opacity="0.44"/>
<circle cx="83.3" cy="380.2" r="2.16" fill="#ffffff" opacity="0.44"/>
<circle cx="747.4" cy="122.1" r="1.71" fill="#ffffff" opacity="0.68"/>
<circle cx="673.9" cy="393.0" r="1.37" fill="#ffffff" opacity="0.6"/>
<circle cx="897.4" cy="113.5" r="0.75" fill="#ffffff" opacity="0.67"/>
<circle cx="916.6" cy="393.1" r="1.31" fill="#ffffff" opacity="0.65"/>
<circle cx="186.1" cy="203.2" r="0.92" fill="#ffffff" opacity="0.56"/>
<circle cx="314.8" cy="176.6" r="1.71" fill="#ffffff" opacity="0.82"/>
<circle cx="295.9" cy="536.1" r="1.26" fill="#ffffff" opacity="0.75"/>
<circle cx="584.6" cy="203.1" r="0.95" fill="#ffffff" opacity="0.17"/>
<circle cx="479.5" cy="290.9" r="0.88" fill="#ffffff" opacity="0.4"/>
<circle cx="322.0" cy="588.4" r="0.83" fill="#ffffff" opacity="0.84"/>
<circle cx="479.6" cy="455.2" r="1.35" fill="#ffffff" opacity="0.73"/>
<circle cx="821.6" cy="423.4" r="1.37" fill="#ffffff" opacity="0.65"/>
<circle cx="856.6" cy="304.2" r="1.77" fill="#ffffff" opacity="0.82"/>
<circle cx="467.4" cy="174.5" r="0.98" fill="#ffffff" opacity="0.65"/>
<circle cx="675.4" cy="728.6" r="1.97" fill="#ffffff" opacity="0.32"/>
<circle cx="189.6" cy="196.6" r="0.9" fill="#ffffff" opacity="0.64"/>
<circle cx="858.6" cy="683.8" r="1.01" fill="#ffffff" opacity="0.76"/>
<circle cx="313.4" cy="321.7" r="1.77" fill="#ffffff" opacity="0.21"/>
<circle cx="92.6" cy="633.8" r="1.07" fill="#ffffff" opacity="0.4"/>
<circle cx="580.3" cy="513.4" r="0.61" fill="#ffffff" opacity="0.38"/>
<circle cx="436.2" cy="369.3" r="0.94" fill="#ffffff" opacity="0.56"/>
<circle cx="955.3" cy="297.1" r="1.47" fill="#ffffff" opacity="0.23"/>
<circle cx="274.8" cy="505.7" r="0.78" fill="#ffffff" opacity="0.77"/>
<circle cx="908.8" cy="73.6" r="2.11" fill="#ffffff" opacity="0.41"/>
  <text x="50" y="55" font-family="Arial, Helvetica, sans-serif" font-size="28" font-weight="700" fill="#ffffff">Kiến trúc: Virtual Require System</text>

  <g font-family="Arial, Helvetica, sans-serif">
    <rect x="50" y="100" width="380" height="70" rx="12" fill="#141416" stroke="#4a4a52"/>
    <text x="70" y="132" font-size="17" fill="#f0f0f2" font-weight="600">21 file .lua gốc (TopbarPlus 3.4.0)</text>
    <text x="70" y="154" font-size="13" fill="#9a9aa2">init, Elements/*, Features/*, Packages/*</text>

    <line x1="240" y1="170" x2="240" y2="220" stroke="#d6d6dc" stroke-width="2" marker-end="url(#arrow)"/>

    <rect x="50" y="220" width="380" height="70" rx="12" fill="#141416" stroke="#4a4a52"/>
    <text x="70" y="252" font-size="17" fill="#f0f0f2" font-weight="600">Bundler (Python)</text>
    <text x="70" y="274" font-size="13" fill="#9a9aa2">strip comment → fix Janitor alias → fix game:GetService</text>

    <line x1="240" y1="290" x2="240" y2="340" stroke="#d6d6dc" stroke-width="2" marker-end="url(#arrow)"/>

    <rect x="50" y="340" width="380" height="90" rx="12" fill="#141416" stroke="#4a4a52"/>
    <text x="70" y="372" font-size="17" fill="#f0f0f2" font-weight="600">Node table ảo</text>
    <text x="70" y="394" font-size="13" fill="#9a9aa2">{Name, Parent, ...children} — KHÔNG dùng</text>
    <text x="70" y="412" font-size="13" fill="#e07a7a">Instance.new("ModuleScript")</text>

    <line x1="430" y1="375" x2="530" y2="375" stroke="#d6d6dc" stroke-width="2" marker-end="url(#arrow)"/>

    <rect x="540" y="330" width="410" height="110" rx="12" fill="#141416" stroke="#4a4a52"/>
    <text x="560" y="362" font-size="17" fill="#f0f0f2" font-weight="600">__import(node) cache</text>
    <text x="560" y="384" font-size="13" fill="#9a9aa2">local function fnX(script, require)</text>
    <text x="560" y="404" font-size="13" fill="#9a9aa2">  -- code gốc, không sửa nội dung</text>
    <text x="560" y="424" font-size="13" fill="#9a9aa2">end</text>

    <line x1="745" y1="440" x2="745" y2="490" stroke="#d6d6dc" stroke-width="2" marker-end="url(#arrow)"/>

    <rect x="540" y="490" width="410" height="90" rx="12" fill="#141416" stroke="#4a4a52"/>
    <text x="560" y="522" font-size="17" fill="#f0f0f2" font-weight="600">game:GetService → __gs(name)</text>
    <text x="560" y="546" font-size="13" fill="#9a9aa2">cloneref + cache theo tên service</text>
    <text x="560" y="565" font-size="13" fill="#9a9aa2">game gốc vẫn nguyên vẹn cho FindFirstChild, IsA...</text>

    <line x1="240" y1="430" x2="240" y2="490" stroke="#d6d6dc" stroke-width="2" marker-end="url(#arrow)"/>

    <rect x="50" y="490" width="380" height="90" rx="12" fill="#141416" stroke="#4a4a52"/>
    <text x="70" y="522" font-size="17" fill="#f0f0f2" font-weight="600">getgenv().__TopbarPlusExecutorBuild</text>
    <text x="70" y="546" font-size="13" fill="#9a9aa2">cache singleton — loadstring lại</text>
    <text x="70" y="565" font-size="13" fill="#9a9aa2">không build lại từ đầu trong 1 session</text>

    <line x1="500" y1="600" x2="500" y2="640" stroke="#d6d6dc" stroke-width="2" marker-end="url(#arrow)" transform="translate(0,0)"/>

    <rect x="200" y="640" width="600" height="70" rx="12" fill="#1c1c20" stroke="#6a6a72"/>
    <text x="500" y="682" font-size="18" fill="#ffffff" font-weight="700" text-anchor="middle">local Icon = loadstring(game:HttpGet(url))()</text>
  </g>
</svg>
