<svg width="1200" height="420" viewBox="0 0 1200 420" xmlns="http://www.w3.org/2000/svg">
  <defs>
    <linearGradient id="bgGrad" x1="0%" y1="0%" x2="100%" y2="100%">
      <stop offset="0%" stop-color="#050506"/>
      <stop offset="55%" stop-color="#1c1c20"/>
      <stop offset="100%" stop-color="#f3f3f5"/>
    </linearGradient>
    <radialGradient id="glow" cx="18%" cy="20%" r="60%">
      <stop offset="0%" stop-color="#ffffff" stop-opacity="0.18"/>
      <stop offset="100%" stop-color="#ffffff" stop-opacity="0"/>
    </radialGradient>
  </defs>
  <rect width="1200" height="420" fill="url(#bgGrad)"/>
  <rect width="1200" height="420" fill="url(#glow)"/>
  <circle cx="388.6" cy="63.4" r="1.64" fill="#ffffff" opacity="0.2"/>
<circle cx="643.1" cy="153.6" r="0.69" fill="#ffffff" opacity="0.51"/>
<circle cx="45.0" cy="182.1" r="0.71" fill="#ffffff" opacity="0.21"/>
<circle cx="509.4" cy="347.3" r="0.8" fill="#ffffff" opacity="0.31"/>
<circle cx="752.9" cy="398.0" r="1.52" fill="#ffffff" opacity="0.43"/>
<circle cx="1171.5" cy="19.6" r="1.97" fill="#ffffff" opacity="0.35"/>
<circle cx="173.1" cy="49.5" r="1.09" fill="#ffffff" opacity="0.72"/>
<circle cx="216.9" cy="244.3" r="1.62" fill="#ffffff" opacity="0.41"/>
<circle cx="657.3" cy="26.4" r="0.7" fill="#ffffff" opacity="0.29"/>
<circle cx="816.5" cy="179.6" r="1.1" fill="#ffffff" opacity="0.56"/>
<circle cx="543.8" cy="125.9" r="1.87" fill="#ffffff" opacity="0.64"/>
<circle cx="292.9" cy="241.3" r="1.44" fill="#ffffff" opacity="0.76"/>
<circle cx="875.3" cy="120.9" r="2.17" fill="#ffffff" opacity="0.23"/>
<circle cx="501.7" cy="318.0" r="0.84" fill="#ffffff" opacity="0.49"/>
<circle cx="47.0" cy="280.7" r="1.82" fill="#ffffff" opacity="0.55"/>
<circle cx="1050.6" cy="131.8" r="1.71" fill="#ffffff" opacity="0.57"/>
<circle cx="695.9" cy="191.6" r="1.94" fill="#ffffff" opacity="0.81"/>
<circle cx="568.9" cy="278.9" r="0.7" fill="#ffffff" opacity="0.64"/>
<circle cx="776.6" cy="417.1" r="1.92" fill="#ffffff" opacity="0.35"/>
<circle cx="462.9" cy="280.8" r="0.64" fill="#ffffff" opacity="0.47"/>
<circle cx="201.7" cy="49.2" r="0.69" fill="#ffffff" opacity="0.69"/>
<circle cx="155.2" cy="104.0" r="1.23" fill="#ffffff" opacity="0.76"/>
<circle cx="96.7" cy="188.7" r="1.48" fill="#ffffff" opacity="0.77"/>
<circle cx="983.1" cy="362.9" r="1.05" fill="#ffffff" opacity="0.44"/>
<circle cx="430.5" cy="371.4" r="2.13" fill="#ffffff" opacity="0.26"/>
<circle cx="211.5" cy="97.4" r="0.97" fill="#ffffff" opacity="0.49"/>
<circle cx="706.9" cy="110.4" r="0.61" fill="#ffffff" opacity="0.44"/>
<circle cx="443.1" cy="237.9" r="2.12" fill="#ffffff" opacity="0.63"/>
<circle cx="618.6" cy="259.4" r="1.68" fill="#ffffff" opacity="0.19"/>
<circle cx="1079.4" cy="327.6" r="2.0" fill="#ffffff" opacity="0.71"/>
<circle cx="470.9" cy="167.6" r="0.77" fill="#ffffff" opacity="0.59"/>
<circle cx="74.7" cy="28.3" r="0.93" fill="#ffffff" opacity="0.26"/>
<circle cx="408.1" cy="22.1" r="0.6" fill="#ffffff" opacity="0.26"/>
<circle cx="121.8" cy="152.7" r="0.64" fill="#ffffff" opacity="0.76"/>
<circle cx="736.9" cy="62.4" r="1.0" fill="#ffffff" opacity="0.39"/>
<circle cx="437.0" cy="51.6" r="1.96" fill="#ffffff" opacity="0.85"/>
<circle cx="559.2" cy="203.2" r="0.74" fill="#ffffff" opacity="0.22"/>
<circle cx="411.2" cy="111.2" r="1.93" fill="#ffffff" opacity="0.26"/>
<circle cx="27.7" cy="399.4" r="1.45" fill="#ffffff" opacity="0.25"/>
<circle cx="651.8" cy="11.4" r="1.44" fill="#ffffff" opacity="0.83"/>
<circle cx="1036.0" cy="292.4" r="1.02" fill="#ffffff" opacity="0.41"/>
<circle cx="200.5" cy="324.2" r="1.45" fill="#ffffff" opacity="0.7"/>
<circle cx="395.6" cy="93.7" r="1.9" fill="#ffffff" opacity="0.84"/>
<circle cx="1023.2" cy="338.6" r="1.91" fill="#ffffff" opacity="0.67"/>
<circle cx="272.1" cy="217.4" r="1.17" fill="#ffffff" opacity="0.17"/>
<circle cx="33.5" cy="117.4" r="1.01" fill="#ffffff" opacity="0.63"/>
<circle cx="1147.8" cy="187.8" r="2.1" fill="#ffffff" opacity="0.84"/>
<circle cx="1146.0" cy="153.1" r="0.95" fill="#ffffff" opacity="0.31"/>
<circle cx="236.0" cy="85.8" r="1.6" fill="#ffffff" opacity="0.78"/>
<circle cx="1008.5" cy="201.4" r="1.64" fill="#ffffff" opacity="0.71"/>
<circle cx="101.7" cy="277.4" r="2.06" fill="#ffffff" opacity="0.7"/>
<circle cx="900.2" cy="200.8" r="0.89" fill="#ffffff" opacity="0.7"/>
<circle cx="399.0" cy="336.3" r="2.15" fill="#ffffff" opacity="0.43"/>
<circle cx="481.7" cy="397.7" r="1.76" fill="#ffffff" opacity="0.27"/>
<circle cx="152.4" cy="63.5" r="2.05" fill="#ffffff" opacity="0.71"/>
<circle cx="175.4" cy="347.1" r="2.17" fill="#ffffff" opacity="0.61"/>
<circle cx="420.5" cy="230.4" r="0.81" fill="#ffffff" opacity="0.16"/>
<circle cx="1165.1" cy="272.9" r="1.44" fill="#ffffff" opacity="0.8"/>
<circle cx="520.6" cy="366.1" r="1.92" fill="#ffffff" opacity="0.3"/>
<circle cx="302.2" cy="123.0" r="0.98" fill="#ffffff" opacity="0.56"/>
<circle cx="311.2" cy="176.0" r="0.81" fill="#ffffff" opacity="0.79"/>
<circle cx="424.5" cy="192.4" r="1.53" fill="#ffffff" opacity="0.78"/>
<circle cx="504.8" cy="385.4" r="1.4" fill="#ffffff" opacity="0.52"/>
<circle cx="628.2" cy="7.9" r="1.3" fill="#ffffff" opacity="0.28"/>
<circle cx="4.7" cy="335.7" r="0.88" fill="#ffffff" opacity="0.48"/>
<circle cx="870.2" cy="233.7" r="1.12" fill="#ffffff" opacity="0.51"/>
<circle cx="666.5" cy="329.4" r="0.77" fill="#ffffff" opacity="0.54"/>
<circle cx="298.2" cy="116.3" r="1.84" fill="#ffffff" opacity="0.51"/>
<circle cx="674.1" cy="319.2" r="2.06" fill="#ffffff" opacity="0.46"/>
<circle cx="735.0" cy="212.3" r="1.42" fill="#ffffff" opacity="0.63"/>
<circle cx="542.8" cy="224.0" r="1.36" fill="#ffffff" opacity="0.81"/>
<circle cx="839.1" cy="368.1" r="2.11" fill="#ffffff" opacity="0.33"/>
<circle cx="671.4" cy="396.2" r="1.94" fill="#ffffff" opacity="0.25"/>
<circle cx="145.9" cy="185.7" r="0.72" fill="#ffffff" opacity="0.32"/>
<circle cx="87.7" cy="281.2" r="1.85" fill="#ffffff" opacity="0.78"/>
<circle cx="185.3" cy="300.8" r="1.66" fill="#ffffff" opacity="0.25"/>
<circle cx="1059.4" cy="406.4" r="0.95" fill="#ffffff" opacity="0.82"/>
<circle cx="477.9" cy="204.6" r="2.18" fill="#ffffff" opacity="0.73"/>
<circle cx="193.8" cy="181.2" r="1.42" fill="#ffffff" opacity="0.39"/>
<circle cx="234.9" cy="133.8" r="1.76" fill="#ffffff" opacity="0.16"/>
<circle cx="664.9" cy="185.0" r="0.63" fill="#ffffff" opacity="0.38"/>
<circle cx="748.7" cy="215.2" r="0.7" fill="#ffffff" opacity="0.84"/>
<circle cx="946.0" cy="408.1" r="0.77" fill="#ffffff" opacity="0.34"/>
<circle cx="47.5" cy="327.2" r="1.03" fill="#ffffff" opacity="0.24"/>
<circle cx="506.7" cy="382.8" r="1.91" fill="#ffffff" opacity="0.33"/>
<circle cx="179.2" cy="386.1" r="1.51" fill="#ffffff" opacity="0.64"/>
<circle cx="107.4" cy="24.2" r="1.7" fill="#ffffff" opacity="0.45"/>
<circle cx="86.9" cy="394.1" r="1.62" fill="#ffffff" opacity="0.71"/>
<circle cx="100.5" cy="359.6" r="0.71" fill="#ffffff" opacity="0.75"/>
<circle cx="544.5" cy="142.4" r="1.48" fill="#ffffff" opacity="0.8"/>
<circle cx="321.4" cy="54.3" r="1.44" fill="#ffffff" opacity="0.32"/>
<circle cx="131.3" cy="67.8" r="0.68" fill="#ffffff" opacity="0.29"/>
<circle cx="374.4" cy="128.1" r="1.82" fill="#ffffff" opacity="0.35"/>
<circle cx="600.1" cy="74.7" r="1.16" fill="#ffffff" opacity="0.16"/>
<circle cx="300.5" cy="6.4" r="1.77" fill="#ffffff" opacity="0.54"/>
<circle cx="227.3" cy="199.4" r="2.1" fill="#ffffff" opacity="0.22"/>
<circle cx="982.7" cy="181.5" r="1.39" fill="#ffffff" opacity="0.73"/>
<circle cx="471.7" cy="212.8" r="1.7" fill="#ffffff" opacity="0.84"/>
<circle cx="411.2" cy="349.6" r="1.73" fill="#ffffff" opacity="0.6"/>
<circle cx="485.6" cy="146.0" r="0.69" fill="#ffffff" opacity="0.24"/>
<circle cx="84.9" cy="311.2" r="1.01" fill="#ffffff" opacity="0.26"/>
<circle cx="101.4" cy="353.3" r="1.99" fill="#ffffff" opacity="0.62"/>
<circle cx="338.3" cy="101.7" r="1.07" fill="#ffffff" opacity="0.47"/>
<circle cx="189.0" cy="187.2" r="1.02" fill="#ffffff" opacity="0.82"/>
<circle cx="1167.1" cy="229.8" r="0.99" fill="#ffffff" opacity="0.83"/>
<circle cx="371.5" cy="149.8" r="0.6" fill="#ffffff" opacity="0.42"/>
<circle cx="569.6" cy="211.2" r="0.92" fill="#ffffff" opacity="0.5"/>
<circle cx="5.9" cy="111.0" r="0.74" fill="#ffffff" opacity="0.43"/>
<circle cx="50.0" cy="9.4" r="1.09" fill="#ffffff" opacity="0.31"/>
<circle cx="702.7" cy="222.3" r="1.8" fill="#ffffff" opacity="0.61"/>
<circle cx="859.2" cy="369.2" r="1.22" fill="#ffffff" opacity="0.38"/>
<circle cx="1181.7" cy="62.8" r="1.76" fill="#ffffff" opacity="0.6"/>
<circle cx="52.5" cy="350.8" r="2.03" fill="#ffffff" opacity="0.59"/>
<circle cx="880.6" cy="341.1" r="0.82" fill="#ffffff" opacity="0.52"/>
<circle cx="605.2" cy="350.7" r="1.89" fill="#ffffff" opacity="0.73"/>
<circle cx="700.9" cy="375.0" r="1.69" fill="#ffffff" opacity="0.64"/>
<circle cx="275.9" cy="13.1" r="0.81" fill="#ffffff" opacity="0.4"/>
<circle cx="125.9" cy="351.0" r="1.49" fill="#ffffff" opacity="0.59"/>
<circle cx="751.5" cy="285.9" r="1.38" fill="#ffffff" opacity="0.15"/>
<circle cx="957.2" cy="314.3" r="1.4" fill="#ffffff" opacity="0.52"/>
<circle cx="791.2" cy="27.7" r="1.78" fill="#ffffff" opacity="0.33"/>
<circle cx="89.3" cy="111.5" r="1.77" fill="#ffffff" opacity="0.29"/>
<circle cx="887.8" cy="409.8" r="1.39" fill="#ffffff" opacity="0.42"/>
<circle cx="574.8" cy="287.2" r="1.83" fill="#ffffff" opacity="0.58"/>
<circle cx="771.3" cy="32.5" r="0.84" fill="#ffffff" opacity="0.33"/>
<circle cx="891.9" cy="127.9" r="1.51" fill="#ffffff" opacity="0.16"/>
<circle cx="72.8" cy="112.9" r="1.68" fill="#ffffff" opacity="0.63"/>
<circle cx="810.8" cy="122.2" r="1.43" fill="#ffffff" opacity="0.48"/>
<circle cx="559.6" cy="49.8" r="2.03" fill="#ffffff" opacity="0.29"/>
<circle cx="1173.8" cy="393.2" r="0.63" fill="#ffffff" opacity="0.47"/>
  <g transform="translate(90,150)">
    <rect x="0" y="0" width="620" height="64" rx="16" fill="#0e0e10" stroke="#3a3a40" stroke-width="1.5"/>
    <circle cx="34" cy="32" r="13" fill="#e8e8ec"/>
    <rect x="60" y="20" width="70" height="24" rx="8" fill="#26262c"/>
    <rect x="142" y="20" width="54" height="24" rx="8" fill="#26262c"/>
    <rect x="208" y="20" width="90" height="24" rx="8" fill="#3a3a42"/>
    <circle cx="330" cy="32" r="10" fill="#8a8a92"/>
    <rect x="352" y="20" width="60" height="24" rx="8" fill="#26262c"/>
    <rect x="424" y="20" width="60" height="24" rx="8" fill="#26262c"/>
    <circle cx="560" cy="32" r="4" fill="#ffffff"/>
  </g>
  <text x="90" y="290" font-family="Arial, Helvetica, sans-serif" font-size="54" font-weight="700" fill="#ffffff">TopbarPlus</text>
  <text x="90" y="330" font-family="Arial, Helvetica, sans-serif" font-size="22" font-weight="400" fill="#b8b8c0">Executor Edition — bundle require ảo, không phụ thuộc ModuleScript</text>
  <text x="90" y="370" font-family="Consolas, monospace" font-size="15" fill="#7d7d86">loadstring(game:HttpGet("TopbarPlus_Executor.lua"))()</text>
</svg>
